<svg width="512" height="512" viewBox="0 0 512 512" fill="none" xmlns="http://www.w3.org/2000/svg">
<path d="M116.203 77.0312C112.879 78.6484 106.859 84.6679 106.859 86.4648C106.859 86.8242 103.804 90.1484 100.121 93.7422C91.4958 102.098 88.6208 108.027 88.3513 117.73L88.1716 124.559L83.7692 128.961C78.9177 133.902 74.2458 142.437 74.695 145.672C75.0544 148.547 77.8396 148.727 84.488 146.391C92.3942 143.695 102.008 141.809 108.476 141.809C118.629 141.719 124.468 147.199 126.086 158.25C126.894 163.371 125.367 172.445 122.941 177.117C118.269 186.281 123.121 194.008 133.453 194.008H136.777L136.148 203.082C135.609 212.426 136.687 236.863 138.394 249.262C140.64 266.422 146.57 281.785 155.015 292.207C160.675 299.215 173.343 309.727 192.031 322.934C209.011 334.883 209.55 335.422 215.57 350.785C220.242 362.465 223.656 368.215 230.843 375.852C234.617 379.895 238.121 384.207 238.66 385.555C240.996 390.855 241.894 402.715 240.816 412.867C240.277 418.258 239.379 424.187 238.929 425.984C237.851 429.668 236.773 430.207 225.902 432.453C208.023 436.047 192.3 447.367 205.148 447.367C208.652 447.367 221.5 446.199 229.765 445.121C232.281 444.852 232.73 445.031 232.191 446.289C231.922 447.098 231.383 449.703 231.113 452.039C230.394 457.789 231.472 457.699 242.883 451.051C255.64 443.684 255.101 443.684 260.941 449.254L265.883 453.836L266.781 451.5C268.129 447.816 267.859 444.492 265.883 439.91C264.894 437.664 263.636 433.891 263.187 431.465C262.738 429.129 261.75 424.277 260.941 420.863C258.336 408.824 258.336 399.48 260.851 385.375C261.121 384.117 261.75 377.289 262.289 370.281C263.277 357.703 264.984 346.203 266.242 344.227C266.511 343.687 266.422 343.059 265.972 342.699C264.535 341.891 269.476 332.187 272.801 329.223C291.668 312.691 309.636 288.254 313.14 274.598L313.769 271.992L317.004 275.137C321.047 279 323.383 280.258 326.797 280.258C329.851 280.258 332.097 278.012 332.906 274.238L333.445 271.453L339.914 277.922C357.343 295.621 368.843 293.824 369.922 273.25L370.371 265.793L373.066 269.117C376.39 273.07 383.129 277.562 385.914 277.562C387.082 277.562 389.058 276.664 390.406 275.496C392.383 273.789 392.922 272.441 393.371 267.59L393.91 261.84L397.683 267.32C402.265 274.059 411.519 282.504 415.652 283.941C419.785 285.289 423.468 283.762 425.265 279.809C426.793 276.574 427.242 262.109 425.894 255.551L425.265 251.957L430.656 257.527C436.496 263.367 439.82 264.984 443.414 263.277C446.199 262.02 447.277 259.145 448.445 250.609C450.242 236.324 445.84 207.215 439.55 192.211C439.281 191.492 438.922 190.414 438.832 189.965C438.293 187.898 434.609 179.273 432.453 174.871C426.164 162.562 415.203 149.445 405.769 142.887C398.672 138.035 387.621 133.363 378.187 131.297C373.605 130.309 358.871 130.937 354.379 132.375C348.359 134.262 348.449 134.262 349.976 130.668C351.773 126.266 351.593 123.66 349.078 121.324C342.34 114.945 320.957 123.57 306.133 138.484C295.172 149.535 288.343 160.406 284.031 173.793C280.976 183.227 279 196.523 279.449 204.609L279.808 210.18L276.754 210.719C273.519 211.348 251.777 210.629 247.914 209.73C246.656 209.551 244.23 209.012 242.523 208.742C222.488 205.238 206.316 194.277 199.039 179.094C195.984 172.805 184.125 141.809 184.125 140.191C184.125 138.035 176.937 122.402 171.277 112.34C167.234 104.973 160.406 97.3359 153.847 92.6641C152.23 91.4961 150.883 89.8789 150.883 89.0703C150.883 88.1719 150.254 86.5547 149.445 85.3867C148.277 83.6797 147.289 83.4101 144.504 83.6797C141.449 83.9492 140.91 83.6797 140.011 81.5234C138.843 78.5586 136.058 77.6601 131.117 78.4687C128.511 78.9179 127.433 78.6484 126.804 77.6601C125.636 75.414 120.336 75.1445 116.203 77.0312V77.0312Z" fill="#1B1E32"/>
</svg>
